
<svg width="82px" height="74px" viewBox="0 0 82 74" version="1.1" xmlns="http://www.w3.org/2000/svg" xmlns:xlink="http://www.w3.org/1999/xlink">
    <g id="Page-1" stroke="none" stroke-width="1" fill="none" fill-rule="evenodd">
        <g id="Desktop" transform="translate(-593.000000, -305.000000)" fill="#000000" fill-rule="nonzero">
            <g id="house" transform="translate(-784.000000, -1203.000000)">
                <g id="Symbols" transform="translate(491.000000, 609.000000)">
                    <g id="Regular-L" transform="translate(885.610000, 899.000000)">
                        <path d="M2.93608114,38.8064831 C3.82167212,38.8064831 4.5135383,38.3927786 5.15008692,37.7859481 L10.2145338,33.1798992 L10.2145338,66.497907 C10.2145338,71.2970255 12.9819985,74 17.8527772,74 L64.9275629,74 C69.7984549,74 72.5654662,71.2694602 72.5654662,66.497907 L72.5654662,33.1798992 L77.6301965,37.7859481 C78.2666884,38.3927786 78.9587246,38.8064831 79.8440322,38.8064831 C81.25531,38.8064831 82.39,37.9238872 82.39,36.517213 C82.39,35.6070519 82.057868,35.0278431 81.4769203,34.5038212 L69.6046168,23.6920361 L69.6046168,2.28881819 C69.6046168,0.882313428 68.6909703,0 67.3352368,0 L63.3224469,0 C61.9383745,0 60.9975227,0.882313428 60.9975227,2.28881819 L60.9975227,15.886556 L45.3891305,1.6821571 C44.2267817,0.606661089 42.8430493,0 41.4039427,0 C39.9371774,0 38.553445,0.606661089 37.3910962,1.6821571 L1.30330643,34.5038212 C0.72213204,35.0278431 0.39,35.6070519 0.39,36.517213 C0.39,37.9238872 1.52469001,38.8064831 2.93608114,38.8064831 Z M51.5606652,45.0674063 C51.5606652,43.5228494 50.536497,42.5299361 48.9868119,42.5299361 L33.7934148,42.5299361 C32.2436164,42.5299361 31.1919594,43.5228494 31.1919594,45.0674063 L31.1919594,69.1181293 L18.9043775,69.1181293 C16.3860118,69.1181293 15.1129712,67.7942073 15.1129712,65.2843588 L15.1129712,28.7117894 L40.0478692,6.06768413 C40.4353188,5.70911014 40.9058014,5.46091007 41.4039427,5.46091007 C41.9020841,5.46091007 42.344908,5.68154491 42.7600163,6.06768413 L67.6673688,28.7117894 L67.6673688,65.2843588 C67.6673688,67.7942073 66.3943849,69.1181293 63.8756225,69.1181293 L51.5606652,69.1181293 L51.5606652,45.0674063 Z" id="Shape"></path>
                    </g>
                </g>
            </g>
        </g>
    </g>
</svg>