
<svg width="78px" height="78px" viewBox="0 0 78 78" version="1.1" xmlns="http://www.w3.org/2000/svg" xmlns:xlink="http://www.w3.org/1999/xlink">
    <g stroke="none" stroke-width="1" fill="none" fill-rule="evenodd">
        <g id="exclamationmark.circle.fill" transform="translate(-3088.000000, -622.000000)" fill="#000000" fill-rule="nonzero">
            <g id="square.and.arrow.up" transform="translate(1676.000000, 0.000000)">
                <g id="Symbols">
                    <g id="Regular-S" transform="translate(0.730000, 0.000000)">
                        <g id="bandage.fill" transform="translate(0.270000, 0.000000)">
                            <g id="globe" transform="translate(0.000000, 0.000000)">
                                <g id="Symbols" transform="translate(500.000000, 618.000000)">
                                    <g id="Regular-S" transform="translate(910.650000, 4.000000)">
                                        <path d="M39.2637,77.125 C60.1621,77.125 77.5449,59.6934 77.5449,38.7461 C77.5449,17.7988 60.1133,0.416 39.2148,0.416 C18.2676,0.416 0.83594,17.7988 0.83594,38.7461 C0.83594,59.6934 18.3164,77.125 39.2637,77.125 Z M41.6562,8.5703 C44.7812,9.9375 47.6133,13.7461 49.7617,18.9707 C47.2715,19.4102 44.5371,19.7031 41.6562,19.8008 L41.6562,8.5703 Z M28.668,18.9707 C30.7676,13.7461 33.5996,9.9375 36.7246,8.5703 L36.7246,19.8008 C33.8438,19.7031 31.1582,19.4102 28.668,18.9707 Z M50.1523,9.791 C53.7656,11.1582 56.9883,13.1113 59.7715,15.6016 C58.2578,16.4316 56.5488,17.1641 54.6445,17.7988 C53.375,14.6738 51.8613,11.9883 50.1523,9.791 Z M18.6094,15.6016 C21.3926,13.1113 24.6641,11.1582 28.2285,9.791 C26.5195,11.9883 25.0059,14.6738 23.7363,17.7988 C21.8809,17.1641 20.123,16.4316 18.6094,15.6016 Z M58.3066,36.3047 C58.1113,31.2754 57.3789,26.5391 56.1582,22.3398 C58.8438,21.4609 61.2363,20.4355 63.2383,19.2148 C67.0469,23.9512 69.5371,29.8105 70.0254,36.3047 L58.3066,36.3047 Z M8.4043,36.3047 C8.8926,29.8105 11.334,23.9512 15.1426,19.2148 C17.1934,20.4355 19.5371,21.4609 22.2227,22.3398 C21.002,26.5391 20.2695,31.2754 20.0742,36.3047 L8.4043,36.3047 Z M41.6562,36.3047 L41.6562,24.7324 C45.0254,24.5859 48.2969,24.1953 51.3242,23.6094 C52.3984,27.4668 53.1309,31.7637 53.3262,36.3047 L41.6562,36.3047 Z M25.1035,36.3047 C25.2988,31.7637 25.9824,27.4668 27.1055,23.6094 C30.084,24.1953 33.3555,24.5859 36.7246,24.7324 L36.7246,36.3047 L25.1035,36.3047 Z M8.4043,41.1875 L20.0742,41.1875 C20.2207,46.3145 21.002,51.0996 22.2227,55.3477 C19.5859,56.1777 17.2422,57.2031 15.2891,58.375 C11.3828,53.6387 8.8926,47.7305 8.4043,41.1875 Z M25.0547,41.1875 L36.7246,41.1875 L36.7246,52.9551 C33.3555,53.1016 30.084,53.4922 27.1055,54.0781 C25.9824,50.1719 25.25,45.7773 25.0547,41.1875 Z M41.6562,52.9551 L41.6562,41.1875 L53.3262,41.1875 C53.1309,45.7773 52.3984,50.1719 51.3242,54.0781 C48.2969,53.4922 45.0254,53.1016 41.6562,52.9551 Z M56.1582,55.3477 C57.3789,51.0996 58.1602,46.3145 58.3555,41.1875 L70.0254,41.1875 C69.5371,47.7305 67.0469,53.6875 63.1895,58.4238 C61.1875,57.252 58.7949,56.1777 56.1582,55.3477 Z M28.668,58.7168 C31.1582,58.2773 33.8438,57.9844 36.7246,57.8867 L36.7246,69.11719 C33.5996,67.75 30.7676,63.9414 28.668,58.7168 Z M41.6562,57.8867 C44.5371,57.9844 47.2715,58.2773 49.7617,58.7168 C47.6133,63.9414 44.7812,67.75 41.6562,69.11719 L41.6562,57.8867 Z M54.6445,59.8887 C56.5,60.4746 58.1602,61.207 59.7227,62.0371 C56.9883,64.42969 53.8145,66.33398 50.3477,67.65234 C52.0078,65.50391 53.4238,62.916 54.6445,59.8887 Z M18.7559,61.9883 C20.2695,61.207 21.9297,60.4746 23.7363,59.8887 C24.957,62.8672 26.373,65.45508 27.9844,67.60352 C24.5664,66.28516 21.4414,64.38086 18.7559,61.9883 Z" id="Shape"></path>
                                    </g>
                                </g>
                            </g>
                        </g>
                    </g>
                </g>
            </g>
        </g>
    </g>
</svg>