
<svg width="35px" height="33px" viewBox="0 0 35 33" version="1.1" xmlns="http://www.w3.org/2000/svg" xmlns:xlink="http://www.w3.org/1999/xlink">
    <g id="Page-1" stroke="none" stroke-width="1" fill="none" fill-rule="evenodd">
        <g id="Desktop-HD" transform="translate(-615.000000, -271.000000)" fill="#000000" fill-rule="nonzero">
            <g id="exclamationmark.triangle.fill">
                <g id="Symbols" transform="translate(216.000000, 270.109091)">
                    <g id="Regular-S" transform="translate(399.067636, 1.309091)">
                        <path d="M4.48808727,32.077841 L30.6954764,32.077841 C33.2522618,32.077841 34.8289745,30.2880698 34.8289745,27.9443171 C34.8289745,27.2625164 34.6585309,26.5806982 34.2963055,25.9414691 L21.1500218,2.44005818 C20.4042764,1.05512727 18.9980073,0.330676364 17.5917818,0.330676364 C16.2068073,0.330676364 14.8005818,1.05512727 14.0335418,2.44005818 L0.929829818,25.9414691 C0.546305455,26.5806982 0.354545455,27.2625164 0.354545455,27.9443171 C0.354545455,30.2880698 1.93125818,32.077841 4.48808727,32.077841 Z M17.5917818,20.5508509 C16.6116655,20.5508509 16.0789964,20.0181818 16.0363636,19.0167709 L15.7806982,11.0266909 C15.7380655,10.02528 16.5264,9.30087273 17.5704436,9.30087273 C18.6144873,9.30087273 19.42416,10.0465745 19.3815273,11.0480291 L19.1258618,19.0167709 C19.0832291,20.0394764 18.55056,20.5508509 17.5917818,20.5508509 Z M17.5917818,26.9855127 C16.5690327,26.9855127 15.5676218,26.17584 15.5676218,25.0465745 C15.5676218,23.9173091 16.5477382,23.10768 17.5917818,23.10768 C18.6357818,23.10768 19.6158982,23.8960145 19.6158982,25.0465745 C19.6158982,26.1971782 18.6144873,26.9855127 17.5917818,26.9855127 Z" id="Shape"></path>
                    </g>
                </g>
            </g>
        </g>
    </g>
</svg>