
<svg width="81px" height="81px" viewBox="0 0 81 81" version="1.1" xmlns="http://www.w3.org/2000/svg" xmlns:xlink="http://www.w3.org/1999/xlink">
    <g id="Page-1" stroke="none" stroke-width="1" fill="none" fill-rule="evenodd">
        <g id="exclamationmark.circle.fill" transform="translate(-3436.000000, -620.000000)" fill="#000000" fill-rule="nonzero">
            <g id="square.and.arrow.up" transform="translate(1711.000000, 0.000000)">
                <g id="Symbols" transform="translate(315.000000, 0.000000)">
                    <g id="Regular-S" transform="translate(0.730000, 0.000000)">
                        <g id="bandage.fill" transform="translate(0.270000, 0.000000)">
                            <g id="Symbols" transform="translate(498.000000, 618.000000)">
                                <g id="Regular-S" transform="translate(911.190000, 2.000000)">
                                    <path d="M68.1719,41.2832 L73.8848,35.082 C82.7715,26.1953 82.5273,15.0137 74.5195,6.9082 C66.4629,-1.1973 55.1836,-1.3438 46.3457,7.4941 L40.0957,13.207 C43.6113,12.5723 47.0293,13.4023 50.9844,17.3574 L64.5586,30.9316 C68.5137,34.8867 68.8066,37.8164 68.1719,41.2832 Z M34.627,60.2285 C38.4844,64.0859 42.1953,64.1836 46.1016,60.2285 L60.1641,46.2148 C64.168,42.2109 64.0703,38.5488 60.2129,34.6914 L46.6875,21.2148 C42.8301,17.3574 39.2168,17.2598 35.2129,21.2637 L21.1504,35.2773 C17.2441,39.2324 17.3418,42.9434 21.1504,46.8008 L34.627,60.2285 Z M38.0449,35.3262 C36.5801,33.8613 36.5801,31.4688 37.9961,30.0527 C39.5098,28.5391 41.8047,28.5391 43.3184,30.0527 C44.7832,31.4688 44.832,33.8125 43.2695,35.3262 C41.8535,36.7422 39.4609,36.7422 38.0449,35.3262 Z M29.9395,43.3828 C28.4746,41.918 28.4746,39.5742 29.9395,38.1094 C31.4531,36.5957 33.748,36.6445 35.2617,38.1582 C36.6777,39.5254 36.7266,41.918 35.2617,43.334 C33.6992,44.8965 31.4043,44.8477 29.9395,43.3828 Z M51.375,43.3828 C49.9102,44.8477 47.5664,44.8477 46.0527,43.334 C44.6855,41.9668 44.6855,39.5254 46.0527,38.1582 C47.6152,36.5957 49.9102,36.6445 51.375,38.1094 C52.8887,39.5742 52.8887,41.918 51.375,43.3828 Z M6.8438,74.58398 C14.8516,82.68945 26.1309,82.88477 34.9688,73.99805 L41.1699,68.23633 C37.7031,68.91992 34.334,68.13867 30.3789,64.1836 L16.8047,50.6094 C12.8496,46.6543 12.5078,43.7246 13.1426,40.209 L7.4297,46.459 C-1.45703,55.2969 -1.21289,66.47852 6.8438,74.58398 Z M37.9961,51.4395 C36.5801,50.0234 36.5312,47.6797 38.0449,46.166 C39.5098,44.7012 41.8535,44.75 43.2695,46.166 C44.7832,47.6309 44.832,50.0234 43.3184,51.4395 C41.7559,52.9531 39.5098,52.9531 37.9961,51.4395 Z" id="Shape"></path>
                                </g>
                            </g>
                        </g>
                    </g>
                </g>
            </g>
        </g>
    </g>
</svg>